<svg width="25px" height="25px" viewBox="0 0 25px 25px" fill="none" xmlns="http://www.w3.org/2000/svg">
<path d="M25.0001 3.83412C24.0998 4.32133 23.1452 4.63978 22.1681 4.77879C23.1964 4.01679 23.9641 2.82065 24.3281 1.41352C23.3639 2.12028 22.3088 2.61945 21.2081 2.88954C20.7517 2.27587 20.1951 1.78771 19.5747 1.45704C18.9543 1.12637 18.2841 0.960572 17.6081 0.970648C16.3032 0.970648 15.0518 1.60824 14.1291 2.74315C13.2064 3.87805 12.688 5.41736 12.688 7.02236C12.6846 7.48898 12.7249 7.95453 12.8081 8.40982C10.8502 8.29194 8.93451 7.66852 7.18544 6.58012C5.43637 5.49171 3.89314 3.96266 2.65607 2.09243C2.22466 2.9865 1.99285 4.00484 1.98407 5.04446C1.98162 6.04212 2.1797 7.02506 2.56074 7.90577C2.94178 8.78649 3.49396 9.53771 4.16808 10.0925C3.38428 10.0647 2.61792 9.80119 1.93606 9.32494C1.94192 10.7196 2.33926 12.069 3.06084 13.1448C3.78242 14.2206 4.78399 14.9569 5.89608 15.229C5.47342 15.3681 5.03759 15.4376 4.60006 15.4357C4.28877 15.4723 3.97535 15.4723 3.66406 15.4357C3.97985 16.6389 4.59412 17.6903 5.42059 18.4421C6.24707 19.1939 7.24423 19.6085 8.27206 19.6275C6.52686 21.3136 4.37125 22.2286 2.15205 22.2253H0.976074C3.22468 23.9999 5.84042 24.9426 8.51207 24.9412C10.3562 24.9569 12.1846 24.5217 13.8908 23.6609C15.5971 22.8 17.1473 21.5308 18.4513 19.9268C19.7554 18.3228 20.7873 16.4159 21.4871 14.3172C22.187 12.2185 22.5408 9.96971 22.5281 7.70136C22.5281 7.44552 22.5281 7.17978 22.5281 6.90426C23.4928 6.06816 24.3297 5.02876 25.0001 3.83412Z" fill="white"/>
</svg>
