<svg width="795" height="400" viewBox="0 0 795 400" fill="none" xmlns="http://www.w3.org/2000/svg">
<path d="M791.04 235.644H795V231.683H791.04V235.644ZM791.04 164.356V168.317H795V164.356H791.04ZM7.9203 19.802C7.9203 13.2402 13.2394 7.92079 19.8007 7.92079V0C8.8651 0 0 8.86564 0 19.802H7.9203ZM7.9203 380.198V19.802H0V380.198H7.9203ZM19.8007 392.079C13.2394 392.079 7.9203 386.759 7.9203 380.198H0C0 391.135 8.86512 400 19.8007 400V392.079ZM775.199 392.079H19.8007V400H775.199V392.079ZM787.08 380.198C787.08 386.759 781.76 392.079 775.199 392.079V400C786.135 400 795 391.135 795 380.198H787.08ZM787.08 235.644V380.198H795V235.644H787.08ZM791.04 231.683C773.543 231.683 759.359 217.498 759.359 200H751.438C751.438 221.872 769.169 239.604 791.04 239.604V231.683ZM759.359 200C759.359 182.502 773.543 168.317 791.04 168.317V160.396C769.169 160.396 751.438 178.128 751.438 200H759.359ZM787.08 19.802V164.356H795V19.802H787.08ZM775.199 7.92079C781.76 7.92079 787.08 13.2402 787.08 19.802H795C795 8.86564 786.135 0 775.199 0V7.92079ZM19.8007 7.92079H775.199V0H19.8007V7.92079Z" fill="url(#paint0_radial)"/>
<defs>
<radialGradient id="paint0_radial" cx="0" cy="0" r="1" gradientUnits="userSpaceOnUse" gradientTransform="translate(795 196.04) rotate(179.713) scale(791.05 1588.19)">
<stop stop-color="#EB9038"/>
<stop offset="0.463542" stop-color="#8DC4F3"/>
<stop offset="1" stop-color="#F3C3CF"/>
</radialGradient>
</defs>
</svg>
