<svg width="795" height="396" viewBox="0 0 795 396" fill="none" xmlns="http://www.w3.org/2000/svg">
<g clip-path="url(#clip0)">
<path d="M771 0H24C10.7452 0 0 10.7452 0 24V372C0 385.255 10.7452 396 24 396H771C784.255 396 795 385.255 795 372V24C795 10.7452 784.255 0 771 0Z" fill="#2F2F2F"/>
<path d="M280.167 34.9382L347.503 -37H328.511L276.491 30.5395L219.738 -37H202.027H193.227H190.943L260.061 45.1276L209.156 101.03L190.943 120.239H209.88L264.851 50.8069L323.331 120.239H325.949H346.445H352.126L280.167 34.9382Z" fill="#EB9038"/>
<path d="M10.1487 34.9382L77.4288 -37H58.4366L6.41708 30.5395L-50.3366 -37H-68.0477H-76.8476H-79.1311L-10.0131 45.1276L-60.9187 101.03L-79.1311 120.239H-60.1947L-5.22326 50.8069L53.2569 120.239H55.9303H76.3705H82.0515L10.1487 34.9382Z" fill="#F3C3CF"/>
<path d="M550.231 34.9382L617.511 -37H598.575L546.555 30.5395L489.746 -37H472.035H463.291H460.952L530.125 45.1276L479.22 101.03L460.952 120.239H479.944L534.915 50.8069L593.395 120.239H596.013H616.453H622.134L550.231 34.9382Z" fill="#8DC4F3"/>
<path d="M820.293 34.9382L887.573 -37H868.581L816.561 30.5395L759.807 -37H742.096H733.296H731.013L800.131 45.1276L749.225 101.03L731.013 120.239H749.949L804.921 50.8069L863.401 120.239H866.074H886.515H892.196L820.293 34.9382Z" fill="#E95B44"/>
<path d="M412.606 192.122L479.941 120.24H460.949L408.93 187.779L352.176 120.24H334.465H325.665H323.382L392.5 202.367L341.594 258.214L323.382 277.479H342.318L397.289 208.047L455.77 277.479H458.387H478.883H484.564L412.606 192.122Z" fill="#F3C3CF"/>
<path d="M142.594 192.122L209.874 120.24H190.937L138.862 187.779L82.1085 120.24H64.3974H55.6532H53.314L122.488 202.367L71.5264 258.214L53.314 277.479H72.3061L127.278 208.047L185.702 277.479H188.375H208.816H214.497L142.594 192.122Z" fill="#B7B7B7"/>
<path d="M4.97103 349.362L72.2511 277.479H53.3147L1.23946 344.963L-55.5142 277.479H-73.2253H-81.9695H-84.3087L-15.135 359.551L-66.0963 415.454L-84.3087 434.663H-65.3166L-10.3452 365.231L48.0793 434.663H50.7527H71.1929H76.8739L4.97103 349.362Z" fill="#8DC4F3"/>
<path d="M274.98 349.362L342.26 277.479H323.323L271.248 344.963L214.494 277.479H196.783H187.983H185.7L254.818 359.551L203.912 415.454L185.7 434.663H204.636L259.608 365.231L318.088 434.663H320.761H341.202H346.883L274.98 349.362Z" fill="#E95B44"/>
<path d="M544.994 349.362L612.274 277.479H593.282L541.263 344.963L484.509 277.479H466.798H457.998H455.714L524.832 359.551L473.927 415.454L455.714 434.663H474.651L529.622 365.231L588.103 434.663H590.776H611.216H616.897L544.994 349.362Z" fill="#B7B7B7"/>
<path d="M814.947 349.362L882.282 277.479H863.29L811.271 344.963L754.517 277.479H736.806H728.006H725.723L794.841 359.551L743.935 415.454L725.723 434.663H744.659L799.63 365.231L858.111 434.663H860.784H881.224H886.905L814.947 349.362Z" fill="#F3C3CF"/>
<path d="M682.67 192.122L749.95 120.24H730.958L678.938 187.779L622.184 120.24H604.473H595.673H593.39L662.508 202.367L611.602 258.214L593.39 277.479H612.326L667.298 208.047L725.778 277.479H728.451H748.892H754.572L682.67 192.122Z" fill="#EB9038"/>
<path d="M0 234C19.8823 234 36 217.882 36 198C36 178.118 19.8823 162 0 162C-19.8823 162 -36 178.118 -36 198C-36 217.882 -19.8823 234 0 234Z" fill="#111111"/>
</g>
<defs>
<clipPath id="clip0">
<rect width="795" height="396" fill="white"/>
</clipPath>
</defs>
</svg>
