<svg width="74" height="62" viewBox="0 0 74 62" fill="none" xmlns="http://www.w3.org/2000/svg">
<path d="M18.334 0.166748C12.667 0.166748 7.16704 3.00006 3.83404 7.83346C1.00004 12.0001 0.167043 17.3335 1.50004 22.6668C2.50004 26.5001 4.50004 35.3335 5.83404 51.0001C5.83404 57.0001 11.5 61.8335 18.334 61.8335C25.167 61.8335 30.834 57.0001 30.834 51.1668C31.334 36.8335 33.667 27.3335 35 23.0001C36.834 16.8335 35.3341 10.1668 31.1671 5.66676C27.6671 2.16676 23.167 0.166748 18.334 0.166748ZM31.834 22.0001C30.5 26.5001 28.1671 36.3335 27.6671 51.0001C27.6671 55.1668 23.5 58.5001 18.5 58.5001C13.334 58.5001 9.33404 55.1668 9.33404 51.0001C8.00004 35.6668 6.16704 26.6668 4.83404 22.0001C3.66704 17.6668 4.33405 13.3335 6.66705 10.0001C9.33405 6.16676 13.834 3.83346 18.5 3.83346C22.334 3.83346 26 5.50006 28.834 8.33346C32 11.6668 33.334 17.0001 31.834 22.0001Z" fill="url(#paint0_radial)"/>
<path d="M20 11.5V8.6666C20 7.6666 19.333 7 18.333 7C17.333 7 16.666 7.6666 16.666 8.6666V11.5C15.5 12 13.833 12.8333 12.5 14.8333C9.33305 19 8.66605 25.8333 10.666 35.3333C10.833 36.1666 11.666 36.8333 12.666 36.6666C13.5 36.5 14.166 35.6666 14 34.6666C11.833 24.3333 13.5 19.1666 15.166 16.8333C16.5 15 18 14.5 18.5 14.5C19 14.6666 20.5 15.1666 21.833 16.8333C23.5 19.1666 25.166 24.1666 23 34.6666C22.833 35.5 23.333 36.5 24.333 36.6666C24.5 36.6666 24.5 36.6666 24.666 36.6666C25.5 36.6666 26.166 36.1666 26.333 35.3333C28.333 26 27.666 19 24.5 14.8333C22.666 12.8333 21.166 11.8333 20 11.5Z" fill="url(#paint1_radial)"/>
<path d="M70.1659 7.8334C66.8329 3.0001 61.3329 0.166748 55.6659 0.166748C50.8329 0.166748 46.3329 2.1667 42.9999 5.6667C38.6659 10.1667 37.1659 16.6667 39.1659 23.0001C40.4999 27.3334 42.6659 36.8334 43.3329 51.0001C43.3329 57.0001 48.9999 61.8334 55.8329 61.8334C62.8329 61.8334 68.3329 57.0001 68.3329 51.1667C69.6659 35.3334 71.666 26.5001 72.666 22.6667C74 17.3334 73.1659 12.0001 70.1659 7.8334ZM69.3329 21.8334C67.9999 26.6667 66.1659 35.6668 64.8329 51.0001C64.8329 55.1668 60.6659 58.5001 55.6659 58.5001C50.6659 58.5001 46.4999 55.1668 46.4999 51.0001C45.9999 36.3334 43.6659 26.5001 42.3329 22.0001C40.8329 17.0001 41.9999 11.6667 45.4999 8.0001C48.3329 5.1667 51.9999 3.5001 55.8329 3.5001C60.4999 3.5001 64.8329 5.8334 67.6659 9.6667C69.8329 13.1667 70.4999 17.5001 69.3329 21.8334Z" fill="url(#paint2_radial)"/>
<path d="M57.333 11.5V8.6666C57.333 7.6666 56.666 7 55.666 7C54.666 7 53.999 7.6666 53.999 8.6666V11.5C52.833 12 51.166 12.8333 49.833 14.8333C46.666 19 46.166 26 47.999 35.3333C48.166 36.1666 48.999 36.8333 49.999 36.6666C50.833 36.5 51.499 35.6666 51.333 34.6666C49.166 24.3333 50.833 19.1666 52.499 16.8333C53.833 15 55.333 14.5 55.833 14.5C56.333 14.6666 57.833 15.1666 59.166 16.8333C60.833 19.1666 62.499 24.1666 60.333 34.6666C60.166 35.5 60.666 36.5 61.666 36.6666C61.833 36.6666 61.833 36.6666 61.999 36.6666C62.833 36.6666 63.499 36.1666 63.666 35.3333C65.666 26 64.999 19 61.833 14.8333C60.166 12.8333 58.499 11.8333 57.333 11.5Z" fill="url(#paint3_radial)"/>
<defs>
<radialGradient id="paint0_radial" cx="0" cy="0" r="1" gradientUnits="userSpaceOnUse" gradientTransform="translate(18.326 0.166748) rotate(90) scale(61.6667 34.891)">
<stop stop-color="#EB9038"/>
<stop offset="0.515625" stop-color="#F3C3CF"/>
<stop offset="1" stop-color="#8DC4F3"/>
</radialGradient>
<radialGradient id="paint1_radial" cx="0" cy="0" r="1" gradientUnits="userSpaceOnUse" gradientTransform="translate(18.5 7) rotate(90) scale(29.6924 17.9346)">
<stop stop-color="#EB9038"/>
<stop offset="0.515625" stop-color="#F3C3CF"/>
<stop offset="1" stop-color="#8DC4F3"/>
</radialGradient>
<radialGradient id="paint2_radial" cx="0" cy="0" r="1" gradientUnits="userSpaceOnUse" gradientTransform="translate(55.7869 0.166748) rotate(90) scale(61.6667 34.9888)">
<stop stop-color="#EB9038"/>
<stop offset="0.515625" stop-color="#F3C3CF"/>
<stop offset="1" stop-color="#8DC4F3"/>
</radialGradient>
<radialGradient id="paint3_radial" cx="0" cy="0" r="1" gradientUnits="userSpaceOnUse" gradientTransform="translate(55.869 7) rotate(90) scale(29.6924 17.8616)">
<stop stop-color="#EB9038"/>
<stop offset="0.515625" stop-color="#F3C3CF"/>
<stop offset="1" stop-color="#8DC4F3"/>
</radialGradient>
</defs>
</svg>
